<svg xmlns="http://www.w3.org/2000/svg" xmlns:xlink="http://www.w3.org/1999/xlink" width="2000" zoomAndPan="magnify" viewBox="0 0 1500 1499.999933" height="2000" preserveAspectRatio="xMidYMid meet" version="1.0"><defs><clipPath id="b9b79ec802"><path d="M 24.5 26.003906 L 1473.996094 26.003906 L 1473.996094 1475.5 L 24.5 1475.5 Z M 24.5 26.003906 " clip-rule="nonzero"/></clipPath><clipPath id="4ecbafcf52"><path d="M 749.25 26.003906 L 988.601562 172.902344 L 1261.722656 238.277344 L 1327.097656 511.398438 L 1473.996094 750.75 L 1327.097656 990.105469 L 1261.722656 1263.226562 L 988.601562 1328.601562 L 749.25 1475.5 L 509.894531 1328.601562 L 236.773438 1263.226562 L 171.398438 990.105469 L 24.5 750.75 L 171.398438 511.398438 L 236.773438 238.277344 L 509.894531 172.902344 Z M 749.25 26.003906 " clip-rule="nonzero"/></clipPath><clipPath id="338c5db768"><path d="M 0.5 0.00390625 L 1449.996094 0.00390625 L 1449.996094 1449.5 L 0.5 1449.5 Z M 0.5 0.00390625 " clip-rule="nonzero"/></clipPath><clipPath id="73a603871e"><path d="M 725.25 0.00390625 L 964.601562 146.902344 L 1237.722656 212.277344 L 1303.097656 485.398438 L 1449.996094 724.75 L 1303.097656 964.105469 L 1237.722656 1237.226562 L 964.601562 1302.601562 L 725.25 1449.5 L 485.894531 1302.601562 L 212.773438 1237.226562 L 147.398438 964.105469 L 0.5 724.75 L 147.398438 485.398438 L 212.773438 212.277344 L 485.894531 146.902344 Z M 725.25 0.00390625 " clip-rule="nonzero"/></clipPath><clipPath id="c5f1627086"><rect x="0" width="1450" y="0" height="1450"/></clipPath><clipPath id="8f48d2b7f6"><path d="M 24.5 26.003906 L 1473.992188 26.003906 L 1473.992188 1475.492188 L 24.5 1475.492188 Z M 24.5 26.003906 " clip-rule="nonzero"/></clipPath><clipPath id="54bdc6ff8e"><path d="M 749.246094 26.003906 L 988.597656 172.902344 L 1261.71875 238.273438 L 1327.09375 511.394531 L 1473.992188 750.746094 L 1327.09375 990.101562 L 1261.71875 1263.21875 L 988.597656 1328.59375 L 749.246094 1475.492188 L 509.894531 1328.59375 L 236.773438 1263.21875 L 171.398438 990.101562 L 24.5 750.746094 L 171.398438 511.394531 L 236.773438 238.273438 L 509.894531 172.902344 Z M 749.246094 26.003906 " clip-rule="nonzero"/></clipPath><clipPath id="32a3fc2ebd"><path d="M 248.175781 758 L 612 758 L 612 1120.832031 L 248.175781 1120.832031 Z M 248.175781 758 " clip-rule="nonzero"/></clipPath><clipPath id="3107f2cd26"><path d="M 248.175781 455.582031 L 248.175781 1045.917969 C 248.175781 1087.339844 281.753906 1120.917969 323.175781 1120.917969 L 1175.320312 1120.917969 C 1216.742188 1120.917969 1250.320312 1087.339844 1250.320312 1045.917969 L 1250.320312 455.582031 C 1250.320312 414.160156 1216.742188 380.582031 1175.320312 380.582031 L 323.175781 380.582031 C 281.753906 380.582031 248.175781 414.160156 248.175781 455.582031 Z M 248.175781 455.582031 " clip-rule="nonzero"/></clipPath><clipPath id="4d9c8fa77e"><path d="M 518 652 L 719 652 L 719 852 L 518 852 Z M 518 652 " clip-rule="nonzero"/></clipPath><clipPath id="7c9a1d9fb4"><path d="M 248.175781 455.582031 L 248.175781 1045.917969 C 248.175781 1087.339844 281.753906 1120.917969 323.175781 1120.917969 L 1175.320312 1120.917969 C 1216.742188 1120.917969 1250.320312 1087.339844 1250.320312 1045.917969 L 1250.320312 455.582031 C 1250.320312 414.160156 1216.742188 380.582031 1175.320312 380.582031 L 323.175781 380.582031 C 281.753906 380.582031 248.175781 414.160156 248.175781 455.582031 Z M 248.175781 455.582031 " clip-rule="nonzero"/></clipPath><clipPath id="4c9291d64b"><path d="M 408 490 L 584 490 L 584 673 L 408 673 Z M 408 490 " clip-rule="nonzero"/></clipPath><clipPath id="44ad46da4b"><path d="M 248.175781 455.582031 L 248.175781 1045.917969 C 248.175781 1087.339844 281.753906 1120.917969 323.175781 1120.917969 L 1175.320312 1120.917969 C 1216.742188 1120.917969 1250.320312 1087.339844 1250.320312 1045.917969 L 1250.320312 455.582031 C 1250.320312 414.160156 1216.742188 380.582031 1175.320312 380.582031 L 323.175781 380.582031 C 281.753906 380.582031 248.175781 414.160156 248.175781 455.582031 Z M 248.175781 455.582031 " clip-rule="nonzero"/></clipPath><clipPath id="46bc4e70a6"><path d="M 592 406 L 742 406 L 742 562 L 592 562 Z M 592 406 " clip-rule="nonzero"/></clipPath><clipPath id="bd6fa94ccc"><path d="M 248.175781 455.582031 L 248.175781 1045.917969 C 248.175781 1087.339844 281.753906 1120.917969 323.175781 1120.917969 L 1175.320312 1120.917969 C 1216.742188 1120.917969 1250.320312 1087.339844 1250.320312 1045.917969 L 1250.320312 455.582031 C 1250.320312 414.160156 1216.742188 380.582031 1175.320312 380.582031 L 323.175781 380.582031 C 281.753906 380.582031 248.175781 414.160156 248.175781 455.582031 Z M 248.175781 455.582031 " clip-rule="nonzero"/></clipPath><clipPath id="1c97c181ea"><path d="M 750 672 L 899 672 L 899 828 L 750 828 Z M 750 672 " clip-rule="nonzero"/></clipPath><clipPath id="77587f46a7"><path d="M 248.175781 455.582031 L 248.175781 1045.917969 C 248.175781 1087.339844 281.753906 1120.917969 323.175781 1120.917969 L 1175.320312 1120.917969 C 1216.742188 1120.917969 1250.320312 1087.339844 1250.320312 1045.917969 L 1250.320312 455.582031 C 1250.320312 414.160156 1216.742188 380.582031 1175.320312 380.582031 L 323.175781 380.582031 C 281.753906 380.582031 248.175781 414.160156 248.175781 455.582031 Z M 248.175781 455.582031 " clip-rule="nonzero"/></clipPath><clipPath id="857f7f4427"><path d="M 708 534 L 821 534 L 821 651 L 708 651 Z M 708 534 " clip-rule="nonzero"/></clipPath><clipPath id="cd3c73595e"><path d="M 248.175781 455.582031 L 248.175781 1045.917969 C 248.175781 1087.339844 281.753906 1120.917969 323.175781 1120.917969 L 1175.320312 1120.917969 C 1216.742188 1120.917969 1250.320312 1087.339844 1250.320312 1045.917969 L 1250.320312 455.582031 C 1250.320312 414.160156 1216.742188 380.582031 1175.320312 380.582031 L 323.175781 380.582031 C 281.753906 380.582031 248.175781 414.160156 248.175781 455.582031 Z M 248.175781 455.582031 " clip-rule="nonzero"/></clipPath><clipPath id="283e71237b"><path d="M 750 380.582031 L 1250 380.582031 L 1250 1019 L 750 1019 Z M 750 380.582031 " clip-rule="nonzero"/></clipPath><clipPath id="629ab32c27"><path d="M 248.175781 455.582031 L 248.175781 1045.917969 C 248.175781 1087.339844 281.753906 1120.917969 323.175781 1120.917969 L 1175.320312 1120.917969 C 1216.742188 1120.917969 1250.320312 1087.339844 1250.320312 1045.917969 L 1250.320312 455.582031 C 1250.320312 414.160156 1216.742188 380.582031 1175.320312 380.582031 L 323.175781 380.582031 C 281.753906 380.582031 248.175781 414.160156 248.175781 455.582031 Z M 248.175781 455.582031 " clip-rule="nonzero"/></clipPath><clipPath id="158aacf93b"><path d="M 1041 452 L 1178 452 L 1178 589 L 1041 589 Z M 1041 452 " clip-rule="nonzero"/></clipPath><clipPath id="f5e4d18496"><path d="M 248.175781 455.582031 L 248.175781 1045.917969 C 248.175781 1087.339844 281.753906 1120.917969 323.175781 1120.917969 L 1175.320312 1120.917969 C 1216.742188 1120.917969 1250.320312 1087.339844 1250.320312 1045.917969 L 1250.320312 455.582031 C 1250.320312 414.160156 1216.742188 380.582031 1175.320312 380.582031 L 323.175781 380.582031 C 281.753906 380.582031 248.175781 414.160156 248.175781 455.582031 Z M 248.175781 455.582031 " clip-rule="nonzero"/></clipPath><clipPath id="cb5d1f9e8c"><path d="M 810 472 L 1000 472 L 1000 501 L 810 501 Z M 810 472 " clip-rule="nonzero"/></clipPath><clipPath id="abb8a69ae9"><path d="M 248.175781 455.582031 L 248.175781 1045.917969 C 248.175781 1087.339844 281.753906 1120.917969 323.175781 1120.917969 L 1175.320312 1120.917969 C 1216.742188 1120.917969 1250.320312 1087.339844 1250.320312 1045.917969 L 1250.320312 455.582031 C 1250.320312 414.160156 1216.742188 380.582031 1175.320312 380.582031 L 323.175781 380.582031 C 281.753906 380.582031 248.175781 414.160156 248.175781 455.582031 Z M 248.175781 455.582031 " clip-rule="nonzero"/></clipPath><clipPath id="44ca9094de"><path d="M 810 540 L 1000 540 L 1000 568 L 810 568 Z M 810 540 " clip-rule="nonzero"/></clipPath><clipPath id="a207e38ddd"><path d="M 248.175781 455.582031 L 248.175781 1045.917969 C 248.175781 1087.339844 281.753906 1120.917969 323.175781 1120.917969 L 1175.320312 1120.917969 C 1216.742188 1120.917969 1250.320312 1087.339844 1250.320312 1045.917969 L 1250.320312 455.582031 C 1250.320312 414.160156 1216.742188 380.582031 1175.320312 380.582031 L 323.175781 380.582031 C 281.753906 380.582031 248.175781 414.160156 248.175781 455.582031 Z M 248.175781 455.582031 " clip-rule="nonzero"/></clipPath><clipPath id="791a909281"><path d="M 884 622 L 1178 622 L 1178 651 L 884 651 Z M 884 622 " clip-rule="nonzero"/></clipPath><clipPath id="31fbf07368"><path d="M 248.175781 455.582031 L 248.175781 1045.917969 C 248.175781 1087.339844 281.753906 1120.917969 323.175781 1120.917969 L 1175.320312 1120.917969 C 1216.742188 1120.917969 1250.320312 1087.339844 1250.320312 1045.917969 L 1250.320312 455.582031 C 1250.320312 414.160156 1216.742188 380.582031 1175.320312 380.582031 L 323.175781 380.582031 C 281.753906 380.582031 248.175781 414.160156 248.175781 455.582031 Z M 248.175781 455.582031 " clip-rule="nonzero"/></clipPath><clipPath id="e31af7745a"><path d="M 936 690 L 1178 690 L 1178 718 L 936 718 Z M 936 690 " clip-rule="nonzero"/></clipPath><clipPath id="f38331dcc5"><path d="M 248.175781 455.582031 L 248.175781 1045.917969 C 248.175781 1087.339844 281.753906 1120.917969 323.175781 1120.917969 L 1175.320312 1120.917969 C 1216.742188 1120.917969 1250.320312 1087.339844 1250.320312 1045.917969 L 1250.320312 455.582031 C 1250.320312 414.160156 1216.742188 380.582031 1175.320312 380.582031 L 323.175781 380.582031 C 281.753906 380.582031 248.175781 414.160156 248.175781 455.582031 Z M 248.175781 455.582031 " clip-rule="nonzero"/></clipPath><clipPath id="d58eff800d"><path d="M 952 772 L 1178 772 L 1178 801 L 952 801 Z M 952 772 " clip-rule="nonzero"/></clipPath><clipPath id="c286a61c32"><path d="M 248.175781 455.582031 L 248.175781 1045.917969 C 248.175781 1087.339844 281.753906 1120.917969 323.175781 1120.917969 L 1175.320312 1120.917969 C 1216.742188 1120.917969 1250.320312 1087.339844 1250.320312 1045.917969 L 1250.320312 455.582031 C 1250.320312 414.160156 1216.742188 380.582031 1175.320312 380.582031 L 323.175781 380.582031 C 281.753906 380.582031 248.175781 414.160156 248.175781 455.582031 Z M 248.175781 455.582031 " clip-rule="nonzero"/></clipPath><clipPath id="2a8d7403a0"><path d="M 891 840 L 1178 840 L 1178 868 L 891 868 Z M 891 840 " clip-rule="nonzero"/></clipPath><clipPath id="420227f548"><path d="M 248.175781 455.582031 L 248.175781 1045.917969 C 248.175781 1087.339844 281.753906 1120.917969 323.175781 1120.917969 L 1175.320312 1120.917969 C 1216.742188 1120.917969 1250.320312 1087.339844 1250.320312 1045.917969 L 1250.320312 455.582031 C 1250.320312 414.160156 1216.742188 380.582031 1175.320312 380.582031 L 323.175781 380.582031 C 281.753906 380.582031 248.175781 414.160156 248.175781 455.582031 Z M 248.175781 455.582031 " clip-rule="nonzero"/></clipPath></defs><g clip-path="url(#b9b79ec802)"><g clip-path="url(#4ecbafcf52)"><g transform="matrix(1, 0, 0, 1, 24, 26)"><g clip-path="url(#c5f1627086)"><g clip-path="url(#338c5db768)"><g clip-path="url(#73a603871e)"><path fill="#737373" d="M 0.5 0.00390625 L 1449.996094 0.00390625 L 1449.996094 1449.5 L 0.5 1449.5 Z M 0.5 0.00390625 " fill-opacity="1" fill-rule="nonzero"/></g></g></g></g></g></g><g clip-path="url(#8f48d2b7f6)"><g clip-path="url(#54bdc6ff8e)"><path stroke-linecap="butt" transform="matrix(0.75, 0, 0, 0.75, 24.499028, 26.001981)" fill="none" stroke-linejoin="miter" d="M 966.329565 0.00256641 L 1285.46503 195.867179 L 1649.626543 283.028651 L 1736.788014 647.190164 L 1932.657836 966.325628 L 1736.788014 1285.466301 L 1649.626543 1649.622606 L 1285.46503 1736.789285 L 966.329565 1932.653898 L 647.194101 1736.789285 L 283.032588 1649.622606 L 195.865908 1285.466301 L 0.00129541 966.325628 L 195.865908 647.190164 L 283.032588 283.028651 L 647.194101 195.867179 Z M 966.329565 0.00256641 " stroke="#000000" stroke-width="44" stroke-opacity="1" stroke-miterlimit="4"/></g></g><g clip-path="url(#32a3fc2ebd)"><g clip-path="url(#3107f2cd26)"><path fill="#000000" d="M 321.015625 1120.832031 C 317.472656 1120.832031 313.929688 1119.457031 311.375 1116.898438 L 252.542969 1058.261719 C 249.984375 1055.703125 248.410156 1052.160156 248.410156 1048.421875 C 248.410156 1044.683594 249.785156 1041.339844 252.542969 1038.582031 L 529.390625 762.90625 C 534.703125 757.59375 543.359375 757.59375 548.867188 762.90625 L 607.699219 821.546875 C 610.257812 824.101562 611.832031 827.644531 611.832031 831.382812 C 611.832031 835.121094 610.457031 838.46875 607.699219 841.222656 L 330.65625 1116.898438 C 327.902344 1119.652344 324.359375 1120.832031 321.015625 1120.832031 Z M 281.664062 1048.421875 L 321.015625 1087.578125 L 578.382812 831.1875 L 539.03125 792.03125 Z M 281.664062 1048.421875 " fill-opacity="1" fill-rule="nonzero"/></g></g><g clip-path="url(#4d9c8fa77e)"><g clip-path="url(#7c9a1d9fb4)"><path fill="#000000" d="M 604.75 851.847656 C 601.207031 851.847656 597.664062 850.46875 595.109375 847.914062 L 522.503906 775.699219 C 519.945312 773.140625 518.371094 769.597656 518.371094 765.859375 C 518.371094 762.121094 519.746094 758.777344 522.503906 756.019531 L 608.292969 670.621094 C 632.101562 647.011719 670.664062 647.011719 694.277344 670.621094 L 700.378906 676.527344 C 711.789062 687.9375 718.28125 703.285156 718.28125 719.421875 C 718.28125 735.558594 711.984375 750.90625 700.378906 762.316406 L 614.585938 847.714844 C 611.832031 850.46875 608.292969 851.652344 604.945312 851.652344 Z M 551.625 765.859375 L 604.75 818.789062 L 680.898438 743.035156 C 687.195312 736.738281 690.539062 728.472656 690.539062 719.617188 C 690.539062 710.765625 686.996094 702.5 680.898438 696.203125 L 674.796875 690.300781 C 661.8125 677.3125 640.757812 677.3125 627.769531 690.300781 L 551.820312 766.054688 Z M 551.625 765.859375 " fill-opacity="1" fill-rule="nonzero"/></g></g><g clip-path="url(#4c9291d64b)"><g clip-path="url(#44ad46da4b)"><path fill="#000000" d="M 495.9375 672.984375 C 489.445312 672.984375 483.9375 668.457031 482.558594 662.160156 C 471.539062 612.773438 465.636719 606.476562 418.808594 595.0625 C 412.707031 593.488281 408.378906 587.980469 408.378906 581.683594 C 408.378906 575.386719 412.707031 569.875 418.808594 568.300781 C 465.441406 556.691406 471.34375 550.59375 482.558594 501.203125 C 483.9375 494.90625 489.640625 490.382812 495.9375 490.382812 C 502.234375 490.382812 507.941406 494.90625 509.320312 501.203125 C 520.335938 550.59375 526.242188 556.890625 573.070312 568.300781 C 579.171875 569.875 583.5 575.386719 583.5 581.683594 C 583.5 587.980469 579.171875 593.488281 573.070312 595.0625 C 526.4375 606.671875 520.535156 612.773438 509.320312 662.160156 C 507.941406 668.457031 502.234375 672.984375 495.9375 672.984375 Z M 464.851562 581.683594 C 479.410156 588.964844 488.855469 598.605469 495.9375 613.363281 C 503.023438 598.605469 512.46875 588.964844 527.027344 581.683594 C 512.46875 574.402344 503.023438 564.761719 495.9375 550.003906 C 488.855469 564.761719 479.410156 574.402344 464.851562 581.683594 Z M 464.851562 581.683594 " fill-opacity="1" fill-rule="nonzero"/></g></g><g clip-path="url(#46bc4e70a6)"><g clip-path="url(#bd6fa94ccc)"><path fill="#000000" d="M 666.730469 561.21875 C 660.238281 561.21875 654.726562 556.691406 653.351562 550.394531 C 644.496094 510.648438 640.167969 506.320312 602.78125 497.070312 C 596.683594 495.496094 592.351562 489.988281 592.351562 483.691406 C 592.351562 477.394531 596.683594 471.882812 602.78125 470.308594 C 640.167969 461.0625 644.496094 456.535156 653.351562 416.984375 C 654.726562 410.6875 660.433594 406.164062 666.730469 406.164062 C 673.222656 406.164062 678.734375 410.6875 680.109375 416.984375 C 688.964844 456.734375 693.292969 461.0625 730.679688 470.308594 C 736.777344 471.882812 741.105469 477.394531 741.105469 483.691406 C 741.105469 489.988281 736.777344 495.496094 730.679688 497.070312 C 693.292969 506.320312 688.964844 510.84375 680.109375 550.394531 C 678.734375 556.691406 673.027344 561.21875 666.730469 561.21875 Z M 646.464844 483.691406 C 655.316406 488.808594 661.613281 495.300781 666.730469 504.351562 C 671.847656 495.300781 678.144531 488.808594 686.996094 483.691406 C 678.144531 478.574219 671.847656 472.082031 666.730469 463.03125 C 661.613281 472.082031 655.316406 478.574219 646.464844 483.691406 Z M 646.464844 483.691406 " fill-opacity="1" fill-rule="nonzero"/></g></g><g clip-path="url(#1c97c181ea)"><g clip-path="url(#77587f46a7)"><path fill="#000000" d="M 824.535156 827.84375 C 818.042969 827.84375 812.53125 823.316406 811.15625 817.019531 C 802.300781 777.273438 797.972656 772.941406 760.585938 763.695312 C 754.488281 762.121094 750.160156 756.609375 750.160156 750.316406 C 750.160156 744.019531 754.488281 738.507812 760.585938 736.933594 C 797.972656 727.6875 802.300781 723.160156 811.15625 683.609375 C 812.53125 677.3125 818.238281 672.785156 824.535156 672.785156 C 831.027344 672.785156 836.539062 677.3125 837.914062 683.609375 C 846.769531 723.355469 851.097656 727.6875 888.484375 736.933594 C 894.582031 738.507812 898.914062 744.019531 898.914062 750.316406 C 898.914062 756.609375 894.582031 762.121094 888.484375 763.695312 C 851.097656 772.941406 846.769531 777.46875 837.914062 817.019531 C 836.539062 823.316406 830.832031 827.84375 824.535156 827.84375 Z M 804.269531 750.316406 C 813.125 755.429688 819.417969 761.925781 824.535156 770.976562 C 829.652344 761.925781 835.949219 755.429688 844.800781 750.316406 C 835.949219 745.199219 829.652344 738.707031 824.535156 729.652344 C 819.417969 738.707031 813.125 745.199219 804.269531 750.316406 Z M 804.269531 750.316406 " fill-opacity="1" fill-rule="nonzero"/></g></g><g clip-path="url(#857f7f4427)"><g clip-path="url(#cd3c73595e)"><path fill="#000000" d="M 764.71875 650.355469 C 758.226562 650.355469 752.714844 645.828125 751.339844 639.53125 C 745.4375 613.558594 743.664062 611.589844 719.265625 605.6875 C 713.167969 604.113281 708.839844 598.605469 708.839844 592.308594 C 708.839844 586.011719 713.167969 580.5 719.265625 578.925781 C 743.664062 572.828125 745.4375 571.058594 751.339844 545.082031 C 752.714844 538.785156 758.421875 534.261719 764.71875 534.261719 C 771.210938 534.261719 776.722656 538.785156 778.097656 545.082031 C 784.003906 571.058594 785.773438 573.023438 810.171875 578.925781 C 816.269531 580.5 820.601562 586.011719 820.601562 592.308594 C 820.601562 598.605469 816.269531 604.113281 810.171875 605.6875 C 785.773438 611.789062 784.003906 613.558594 778.097656 639.53125 C 776.722656 645.828125 771.015625 650.355469 764.71875 650.355469 Z M 758.027344 592.308594 C 760.585938 594.277344 762.75 596.636719 764.914062 599.195312 C 766.882812 596.636719 769.246094 594.277344 771.800781 592.308594 C 769.246094 590.339844 767.082031 587.980469 764.914062 585.421875 C 762.949219 587.980469 760.585938 590.339844 758.027344 592.308594 Z M 758.027344 592.308594 " fill-opacity="1" fill-rule="nonzero"/></g></g><g clip-path="url(#283e71237b)"><g clip-path="url(#629ab32c27)"><path fill="#000000" d="M 1236.167969 1018.117188 L 763.933594 1018.117188 C 756.257812 1018.117188 750.160156 1012.019531 750.160156 1004.34375 L 750.160156 853.226562 C 750.160156 845.550781 756.257812 839.453125 763.933594 839.453125 C 771.605469 839.453125 777.707031 845.550781 777.707031 853.226562 L 777.707031 990.570312 L 1222.394531 990.570312 L 1222.394531 408.132812 L 777.707031 408.132812 L 777.707031 475.230469 C 777.707031 482.902344 771.605469 489.003906 763.933594 489.003906 C 756.257812 489.003906 750.160156 482.902344 750.160156 475.230469 L 750.160156 394.355469 C 750.160156 386.683594 756.257812 380.582031 763.933594 380.582031 L 1236.167969 380.582031 C 1243.839844 380.582031 1249.941406 386.683594 1249.941406 394.355469 L 1249.941406 1004.34375 C 1249.941406 1012.019531 1243.839844 1018.117188 1236.167969 1018.117188 Z M 1236.167969 1018.117188 " fill-opacity="1" fill-rule="nonzero"/></g></g><g clip-path="url(#158aacf93b)"><g clip-path="url(#f5e4d18496)"><path fill="#000000" d="M 1163.757812 588.175781 L 1055.339844 588.175781 C 1047.667969 588.175781 1041.566406 582.074219 1041.566406 574.402344 L 1041.566406 466.375 C 1041.566406 458.699219 1047.667969 452.601562 1055.339844 452.601562 L 1163.757812 452.601562 C 1171.429688 452.601562 1177.53125 458.699219 1177.53125 466.375 L 1177.53125 574.402344 C 1177.53125 582.074219 1171.429688 588.175781 1163.757812 588.175781 Z M 1069.113281 560.628906 L 1149.984375 560.628906 L 1149.984375 480.148438 L 1069.113281 480.148438 Z M 1069.113281 560.628906 " fill-opacity="1" fill-rule="nonzero"/></g></g><g clip-path="url(#cb5d1f9e8c)"><g clip-path="url(#abb8a69ae9)"><path fill="#000000" d="M 985.292969 500.417969 L 824.535156 500.417969 C 816.863281 500.417969 810.761719 494.316406 810.761719 486.640625 C 810.761719 478.96875 816.863281 472.867188 824.535156 472.867188 L 985.292969 472.867188 C 992.964844 472.867188 999.066406 478.96875 999.066406 486.640625 C 999.066406 494.316406 992.964844 500.417969 985.292969 500.417969 Z M 985.292969 500.417969 " fill-opacity="1" fill-rule="nonzero"/></g></g><g clip-path="url(#44ca9094de)"><g clip-path="url(#a207e38ddd)"><path fill="#000000" d="M 985.292969 567.910156 L 824.535156 567.910156 C 816.863281 567.910156 810.761719 561.808594 810.761719 554.132812 C 810.761719 546.460938 816.863281 540.359375 824.535156 540.359375 L 985.292969 540.359375 C 992.964844 540.359375 999.066406 546.460938 999.066406 554.132812 C 999.066406 561.808594 992.964844 567.910156 985.292969 567.910156 Z M 985.292969 567.910156 " fill-opacity="1" fill-rule="nonzero"/></g></g><g clip-path="url(#791a909281)"><g clip-path="url(#31fbf07368)"><path fill="#000000" d="M 1163.757812 650.355469 L 898.519531 650.355469 C 890.84375 650.355469 884.746094 644.253906 884.746094 636.582031 C 884.746094 628.90625 890.84375 622.808594 898.519531 622.808594 L 1163.757812 622.808594 C 1171.429688 622.808594 1177.53125 628.90625 1177.53125 636.582031 C 1177.53125 644.253906 1171.429688 650.355469 1163.757812 650.355469 Z M 1163.757812 650.355469 " fill-opacity="1" fill-rule="nonzero"/></g></g><g clip-path="url(#e31af7745a)"><g clip-path="url(#f38331dcc5)"><path fill="#000000" d="M 1163.757812 717.652344 L 949.875 717.652344 C 942.199219 717.652344 936.101562 711.550781 936.101562 703.875 C 936.101562 696.203125 942.199219 690.101562 949.875 690.101562 L 1163.757812 690.101562 C 1171.429688 690.101562 1177.53125 696.203125 1177.53125 703.875 C 1177.53125 711.550781 1171.429688 717.652344 1163.757812 717.652344 Z M 1163.757812 717.652344 " fill-opacity="1" fill-rule="nonzero"/></g></g><g clip-path="url(#d58eff800d)"><g clip-path="url(#c286a61c32)"><path fill="#000000" d="M 1163.757812 800.292969 L 966.207031 800.292969 C 958.53125 800.292969 952.433594 794.195312 952.433594 786.519531 C 952.433594 778.847656 958.53125 772.746094 966.207031 772.746094 L 1163.757812 772.746094 C 1171.429688 772.746094 1177.53125 778.847656 1177.53125 786.519531 C 1177.53125 794.195312 1171.429688 800.292969 1163.757812 800.292969 Z M 1163.757812 800.292969 " fill-opacity="1" fill-rule="nonzero"/></g></g><g clip-path="url(#2a8d7403a0)"><g clip-path="url(#420227f548)"><path fill="#000000" d="M 1163.757812 867.589844 L 904.816406 867.589844 C 897.140625 867.589844 891.042969 861.488281 891.042969 853.816406 C 891.042969 846.140625 897.140625 840.042969 904.816406 840.042969 L 1163.757812 840.042969 C 1171.429688 840.042969 1177.53125 846.140625 1177.53125 853.816406 C 1177.53125 861.488281 1171.429688 867.589844 1163.757812 867.589844 Z M 1163.757812 867.589844 " fill-opacity="1" fill-rule="nonzero"/></g></g></svg>